<mxfile host="65bd71144e">
    <diagram id="twk7xQZotqy6UJ1f3WN9" name="Page-1">
        <mxGraphModel dx="1873" dy="1684" grid="1" gridSize="10" guides="1" tooltips="1" connect="1" arrows="1" fold="1" page="1" pageScale="1" pageWidth="827" pageHeight="1169" math="0" shadow="0">
            <root>
                <mxCell id="0"/>
                <mxCell id="1" parent="0"/>
                <object label="" motion-id="br1" keyframe-id="3" id="47">
                    <mxCell style="shape=image;verticalLabelPosition=bottom;labelBackgroundColor=#ffffff;verticalAlign=top;aspect=fixed;imageAspect=0;image=data:image/png,iVBORw0KGgoAAAANSUhEUgAAAfgAAAD7CAYAAACGy4ZlAAAABHNCSVQICAgIfAhkiAAAABl0RVh0U29mdHdhcmUAZ25vbWUtc2NyZWVuc2hvdO8Dvz4AAAApdEVYdENyZWF0aW9uIFRpbWUAU3VuIDIxIE5vdiAyMDIxIDEyOjQ5OjQwIFBNkGtSHgAAGutJREFUeJzt3Wd4VGXCh/H/pEJIBhJCDUVQIEGkk6BLACGAFCWIoogIFnQVdNcOuu9rpbgvq7siuui6UhYRWJqFJjYiJaFKSyASNCR0iMyQhLSZ90PISCQVJok8uX+fzHnOnPMwc13ec8rMWNqMvt4pVE8OyZHplDKckqWqJwMAcCevqp4AqobzvFPOdKfkVOXE3XnhfaSFdxIAUBk8qnoCqHzODIccdkd+3CtrnxJxB4BKxBF8teKUw+6UsiRLJce2svcHANUdR/DViDNTUlZVzwIAUBkIfDXhzHbKke6o6mkAACoJgf8dmDpusqaMe73iduCUnHanLNwqDwDVhpe3l7f6d+0nSfpi88oqmcTg7oMkSWu3fqmc3JxK2WeAX4Du63+vorr0VVjzUElS/M8JikuI0zvL3pM9wy4pP76TPnixwuYxddxkDYsc6vr7hQ/+4vZ9ODOdl3VDXUi9ELUMaaWQ4BBJUuqpVCWlJir1ZOplzCJUw558Uh23vaiX1p+6jMdf7n4aK+rOcepweKb+trki9wsAvy9e/bv2U5A1UGdsaVU6kSBroPp37VcpkR8WOVSTRj0vq5+10PKw5qEKax6qYZHRmjr/DYWHhuevW0GBL4h7QvJ+SdLtkdGS3B955/ny1b2Gb01FR96u8LbdlZmV4Qp6eNvukqS4fZu1PGapzmdlln2j3sGK6BKulknlmkr5/XY/3iGKGhStlivnSm4NfIBCu/RQveOrFJPixs0CgJt4FcR97dYvq2wSa7d+qYI3GhUd+WGRQzV13GRJ0rKYFZqzZq4rsKHN2mjMgPsKrVNRLo776CljJUnzXpjt9sg7cyWV49J7Dd+aGj/scQXVrqsFX/5HW+JjJeUfzT89cqKk/NCHBIdo5rIZ5Yu8Sbx76PH/mSLfd75XTIq9+PX8WqhX38HqcU0jBciuIz+t17K1G3W44GZHz2B16TtcUW0ayT/3nA7vW6GPv0vUOblpHEC15VEQ98o6NV6UnNwcrd36pc7Y0lyR9/bydvt+AvwCNGnU85KkSR+8qEkfvOiKuyQlJO/XpA9eVFzCFrfv+2K/jbs9wy57hl2jp4xVQvJ+3R4Z7bZr8s6s8t1YF91zuIJq19W7S992xT068naNHTyu0Hoh9Zsquudwt8zRXP6KGDRKUdZkfbZ4hv7x6Xql1RusB/qGqYYkyUtNe9yrO6+V9n41X/O+PyT/9qN0X6fgC4+/0nEA1ZlHVce9QGVEfsyA0bL6WbUsZoWWxawocp2p4yYrPLSbW/f72+3/Nu4FKiTyuWVfNaReiMLDIrTgy/mu0/Ih9ULUs9PNqmute8n64WERCgoIuvy5eYdq2ITZ+nrRDh1YvlmrXp2oqPoXj7fQsAmztWrRDh1YvkMbZr2kqFqS5KPwsQu0YdEOHVi5Q1s/WqBpUS3kU+yOfBU29H1tWL7vwn6eVGRgWecRrMixs/LncGFfT7fxcW2351OxOrBynw6sXKKHm0jy66T7H/6LnujaUPJsqtaNvJS0ZaV2HTumoz9v1Oe7kuXVsJXqSZJnK/VoW0fJmxfq832JOrB7iRbvO6dmnW5SU3eMA6jWvH4PcS9QEPmKOl0f1aWvJGnOmrlFjv/2hjd3KynuBQoi77bT9XllX/XakFaSpD1Juwot/zElUVJ+7Gv6+hUaa3dte63f+e1lTCxAUU/N0BtdTmnBRy8oJj1Eg0eN11uv+erBCa8oLidAUU/N1htdTmnp/Bf0t+NScGCWktIlKVup2+ZqeoJdqTk+Chs0Sc9MeEk7t43VJ8Wcm7YlrdT0lT/I7h+uMWPH6a0JCbr5tVWylzKPnaHj9cqIlkr66Gm9lGCXtUGwbCeyXdvduWiMJm/KkmRX6nFJNSV5Xvj+qLw0pdm81eG6VvI/EK9z8lfTRvWUe3KjTkpSvRZqVuOc9h79xbW9oz8dVmb7RmpmlQ77XeG47TJeFgDG8Brdf1SJK5yxpbnt7vrB3QcpyBpY+ooXFETeXfsPbdZGkgqdlr9YwWn7inDxm4fQZm2KjHsBe4bdNdcrjbzTUfavmm9cr4kr5gVST6bq3aVvS5LuH/yQbri2g2ssMyvj8o/g60drzI3Bip01Ri+tOiJJWpcUoBXv3KWHe72puF3RGnOjVbGzRmrihfFC89q9Sssu/HdcUogGf/SQOrb00Se7LllVUpZSdy/Xss2HJH2tpCbdtDqqryK8V2ldYMnzeCw7WNZsm+I3fa+4lGxp94VNeudv15aSoB/2X/Ra5uzQR+/tcP257qvv1OzWu/SnUYlKymik1tZ4LVi8W+clyTdANWSXPePXh+em23VejRTo64ZxANUaX1VbScKahyouYUu5T//HJWxR2+Zhl79ji1Nylv3z79c1aaU3n5jh+vu07bS27IvV2rhVWrBuvo6cSlWgta72HNylAREDL3taPk07qKVPkpbuvijex7/XzrRxigxtIf+0IsZdAtRh4EQ9E91DYQ2s0rks+fpIqWW8opOSckpZ/gEKKMM89NFcLT08Q4+8+YU6rp+r95cvVExKdrHbvmSm1kYKyDqsH/YdkprUk6wtFHFNHR3Y9+tRd2lXUa50HED15DVv7fxK21lZjsQLPpdfEXf3JyTvV2izNgpt1qbYo/gCAX4BmjrudSUk79c7y9694n1H/yX/hrSEuXvK9bj7ptx/Rfu1WCxl/gz8kZMpUlhEoWV1rXV1S/dBSrOf0Zb4WK2JXeUae2DIONeNeOVWWoxLGPe54Sm99XhfnVo+TU9+lySb/yC9+lp02fednS0VXLEvbR7pWzTlqSH6otdDevjO8fow6i4tnTZWE7flD5d4oOzXSUN6NVLy2un6/GCutGOjYrs+oid6DVbb/fO1L8uu82pa6Gjbq1aAaihTaVmSPK9wHEC15lERd6tfrqLi7s57BNZt+0qSNGbAfaWu+8KoiYrq0tf1JS9XrXJ8V+HB1MRix4KshU/Fd7vwRmDPwSLPiZcgP6zZST8oNbulOt5w0R3fDTqoY2CWkhIO6VxSwoXxxpdswdqkheqd26LZHy1XzP5d+mFXgk5eclBd/C13FyttHtmSlHNKP6ybpvETRmp6UogGD+qhAGUpO9tXvrUCit+4tanq1zintDO/HmOfPHZK5738FVhL0slDSj7vr2ZN6rjGGzVpqppnjyrZ5oZxANWaR0V9JK28KjrukjRnzTzZM+waFjm0xJvpLh5/Z9lMt86hslnKcREm9WSq4n5zRB4XH6s1sSsLXZsPqReioZG3Ky4+VmfsZ8q28RybbOm+annjIIXX95FOrNL7m2yKuH+GXhnYR5E9R2va8+PV8vhyvf+dXTqxXLO35Y9PuzNaUV36aNDAaIXXkmwpqTrp300j749W5A3t1aF9qKw+xeynNKXNo2W0Hh44UJE3dFN4lx7qEOgrW7pNWTkJ2pmSpbBB43V39z4aNHBE/p33F99Fn5ao5PRG6tK7p9o2bKhGTW7QkB5hCrAdVpJNUl6ivt/3ixp1v0tDWrdS6xuG6872/kresVGH5YZxANWa5+CRQ15uXLexfjr2kxyOqvkxksqIuyRl52Tr1NlTiurSV1Fd+qpxcGOlnkrVqbOnJUnhod00fthjenzYeEm68Jn4rW6dw4Rhj0lSqaf9y7pemZTjdO2PqYkKbR4ma638b/lbvn6JtsTHKe1CyLuFRejeAWOVZj+jeatnKzevrFeAjyv1fAv1jrpLNxxfpGU/nlJS3GalNO6tO28dpdE9Osvn6BJNnv5/+vaXPEkZSty0WSmNw3X7gLs08pYBuukaPyVt+1zb9+9Skvf1GnDzKI297W6N6NFCnqcOKXb9cm06caTwfpICFXXrrQpMXKjFF657ezYfpEdu9NQ3iz9XgiOjxHkEtLlLEx8arwdvu0O33xgqJS7RlPfnKTHdrqQjeWoXfodG3jZM/Vo1UNrO5YpJq69O7VvL9+h2xR7+ST+mnlPD625Sz2691CPsWgXYdmnZ6tU6eN4hySFbyo+y1WmrHhG91KVJDZ3as1j/2ZySf+bgiscBVGeWp2Y+6ywIa1V+F31Fx/1ifTv30bSHJyvAr+jTq/YMu6bMn1bsZ+WvRME1+ND72rllvVI5pbzTjnL9zEwN35qK7jlc4WEROm07rTRbftwDrUGqa62ruPhYLV+/pPp+ix0AXAUs7e7v6KyuPzYzZsBoRXXp6/rYWnxyguLit7hO5VeE8t5kd8WBl/J/JvYyWhwUEKR217ZX43pNJOXfhLfn4K6yn5YHAFQZS5vR11/G74zhcs3889vq27lPmdZdFrPCPZ/Ld0p5aQ5Z+Dl4AKg2CHw14cx2ymFz8JvwAFBNlONDVLiaWXws8vDj5QaA6oL/41cjFj9LKd/MAgAwBYGvZjwCPKRaFjmdlXtlprL3BwDVHYGvhjxqWuRh9ajUV98iSUQeACoNPzZTTVl8LbL4WuQ875TjvFOWiv7FEgs39wFAZSLw1ZylhkWeNSySwylntuTMdeb/hnxu+X6FDgDw+0Lgkc/DIksN8TE6ADAE1+ABADAQgQcAwEAEHgAAAxF4AAAMROABADAQgQcAwEAEHgAAAxF4AAAMROABADAQgS+HvkEOreuaq3Vdc9U3yFHV0wEAoFiWjO6dXT/x1alVliRpR+KvPxpesKw6C6vl0MQWTnWrXfjX0LactWjaIYvi0933PmlE7zuUlZOtFRs+dds2UdgTt0/QyV9OasHXC6t6KgBQYTiCL4HVU5raKk9LOjouibskdavt1JKODk1tlSerp3v2OeLmO9WpVUf3bAxF6tc1Si0aXVPV0wCAClUhgff28tb6t7/R2umr5GG5Ot9DTGjm0LpuuRpav/TfMB9a36l13XI1oRmn7QEAvw9eHz734K9/LXtXklTUsvIY3nOYfLy8FehfR7dEDNDKzauudJ6VqmsNh0ZYsqVMT8m/bL+ulnvGoSHHsrTDs4Y25LnpcB4AgMvk9U4RAS9qWVlZLBY9MOh+zVk9T80bNtODg+6/JPDP3v20+nbuo+DadeXj5aOE5P2avvBNxSVsKdc6AyNu0YRhj6lpvSayZdg1e/Vc/euLDy977hfzk6Rf8nTEZlHDeh7y8C469LnpTiUn5sia6ZSfpIwyHsQ/etsjGnzjIDUMaiBPD0+99+ksvf/ZvyRJN3fqpT6dv1Ggfx0dOvaT3lr8D32z41vXY4f+4Tb96Y7HVa92sM5lntPSmOV6a/E/lJuXK6nk56W05+yeqJEa3e8e1Q9soMSURP3fJ3/TtgPbJUnPj3xWvTv1Ul1rkGr6+unQ0UOXzK0kJc371Qde1h/a3aS+T/V3rf/plGXauGeTpn38V0lS66at9enkpRoz9QHFxsdV6OsPAFc7r/PtY11/1NgVIUmK7bfXtSziy+vLtcHeHXspuHawPv5qgRoENdSnk5eqc+tO2n5gx6/bDAvXsTPH9NrcyarpW1O33jREcyb9W2PfeFCx++LKtE7juo00/dE3NGfNPK2JWyurX4DSz2dcyXNRpDoOp84fz9NZH4saBnuq4IqDM1f6OTFH/r84ZL2M7fbt0kenbac1+T9T5eXhqeNpJ1xjqaeO6IPPP1SeI0/3Rt2jv0/4m3r/OUpp9jRJ0r6f9+nVOa/Llm5T22vC9Pw9zynlZKoWfPVJic9Lac/ZQ4Mf0MO3PqTpn7ypg0eSdE/U3frg2Vnq/8wtOnX2tLqFdtXR00f16pzXVcOnhkZFjbxkbiUpad4b92zUiN53qEFgAx1PO646/rXVKuQ6pZ9Pdz2+c6uOyszK1PbEHZX2+gPA1crL3RscFTVSX2z6QmfTbTqbbtOWhK0a3W9UocBL0k/HftaGPRslSeu2faV5L8zWc3c/o+H/O6JM69StXVeeHp76ftcG/XBwl7v/GZeone3UL0dyJT8P5dgcyj2WJ//SL8+X6NDRn7Rp7+ZLlh84nOg6Kt57aJ++n/GtenfsqWUxKyRJiSk/KjHlR0nS9sQd+kO7mxQe2lULvvqkxOelpDFfb1+Nj35U0xe+qUXf/leStOvgLsX+c5P6d+uvj9ctkCQlHz/smvPupN2Kebvw3EpS0rw37d2sPEeeureN0IoNnyoiLFxn021q16Kd/HxrKiMrUzdef6PiErYoJzen0l9/ALjauPUOuKb1m+oP7W7SJ18vci2bv26BorpGKcgaVOJjv/thva6/pq28PYt/z3HxOnsP7dNX27/WrKff1V8fmaoO17Z327+jOL6SfDMc8jiaJ58rjHtZnbad1tl0m+rXqe9aduP13TVn0r+1aWaMNs2MUZc2neXvFyBJJT4vJY21bNxCNX1rauKo57Xrw+3a9eF2bXs/Tn6+NRUS3LjIuZ06e+ncSlLSvM+m27T9wA5Ftu8hSbqp3U1a9M1ipdnOKKJthDwsHureNqLQG5/Kfv0B4Gri9cy1c1x/vHPhQGie/8yLVin79fi7br5TFotFS15ddMnY7ZHR+tcX/y72sXmOPOXk5ijPUfxF7IvXcTgdGv/3JxQRFq7R/Udp4Usfa86auZo6/69lnu/VIivnvLy9vCVJzRs006yn3tVnm77Q9IVvKjcvVxPvec61bknPS0ljWTnZkqTJ86YoNn5Lof2fTT9bprmVpLR5S9K6bV/rseg/ytPDUz3bR+rZfz6vIGugenfsJXuGXVa/AH19IfDV6fUHgMvhtpvsPD08NSxyqD5c+ZE+2/h5obFxQx7UHb2Glxj4bqHddPBIkhzO4gNf1Dqx8XGKjY/Tw7c+pCfv+JP+/t8ZyszKLPf8rxatm7aWj7ePZiydqWNnjkmSTqSdUJ2AwELrlfS8FDV2+MRhZWZlqlWTVoXOwFTmvFfFrdbz9zyjcUMelF8NP+1I3ClrLatevf9l5eblasv+rTpx0b0Kpf07i+OUU5ar9OObAFBWXruH/3pD3Q1L8m+oK2pZaXp17Km61rpa+PUiJZ84XGhsWcwKDe4+SF3bdNHW/dskST07ROruPiOUejJVPTv0VJ9OvfXUu88WelxJ64QEN1Zk+x6K/zlBHhYPtW3eVucyzykr2+xv3tufvF95jjyNj/6jlqxfpqycLNWtXdd15qOk56WkMYfTofc//1AThj2qrJwsbdq7Wd6eXmpav5nmrJlb4fOW8oMfF79F46Mf1acbPlOeI08xu76Xr7ePRvS+Q6/Med217pW8/ifSTigirJuuC7lWP6Ye1IBu/TRl3GT9ecaTitm9QZJcy/4040l9f2HZoO4D9doDrxRaBgC/V267yW54z2Ha93P8JXGXpE17NyvNnqY7ew93Bf5c5jmN7HuXrml4jU6kndBzsyZd8nG6ktYJrh2s0f3vVbP6TZWdm6MDKQf02N8fL/EMQFltPe+hD8566Z6AXNUq44FeuqTFTm/tUMV+Bj75xGE9897zemzoHxXdY6icTqdO285oddwaSSU/L6U9Z++t+Kd+sadpzC33aXT/e2VPtyk+OcEtgS9t3gUWfrNY3dtG6NNN+WeBcnJztDpujQZ1H6iVm1e61ruS13/msvf02oOvaOwt9+kvH74ki+XSj0AWLHM6L73ZoqhlAPB7Y8leLtf/ra7kCL48/vvKQu05tFcvz371itapaAEWp54OytEQ/8LRyDicV+jv1U5PzXD4yl5EKAAAqApesxyX3lBX1LLqyO606OXTPlpgd+jpwBx1rlH4yG2n00MznD5KlKdE2wEAvyNu/yY7E+3P9tDDx33Vu2aeXgjK0VlZ9LbDRzHu/xqBq1aAX4C2/HNTseNT5r+huWvmVZt5AEBVs7QZfT0XFHHFPCweat20VbHjx9NOlOnb7kyZBwBUNQIPAICB+DAwAAAGIvAAABiIwAMAYCACDwCAgQg8AAAGIvAAABiIwAMAYCACDwCAgbw6tepY1XMAAABu5rUjcWdVzwEAALgZp+gBADAQgQcAwEAEHgAAAxF4AAAMROABADAQgQcAwEAEHgAAAxF4AAAMROABADAQgQcAwEAEHgAAAxF4AAAMROABADAQgQcAwEAEHgAAAxF4AAAMROABADAQgQcAwEAEHgAAAxF4AAAMROABADAQgQcAwEAEHgAAAxF4AAAMROABADAQgQcAwEAEHgAAAxF4AAAMROABADAQgQcAwEAEHgAAAxF4AAAMROABADAQgQcAwEAEHgAAAxF4AAAMROABADAQgQcAwEAEHgAAAxF4AAAMROABADAQgQcAwEAEHgAAAxF4AAAMROABADAQgQcAwEAEHgAAAxF4AAAMROABADAQgQcAwEAEHgAAAxF4AAAMROABADAQgQcAwEAEHgAAAxF4AAAMROABADAQgQcAwEAEHgAAAxF4AAAMROABADAQgQcAwEAEHgAAAxF4AAAMROABADAQgQcAwEAEHgAAAxF4AAAMROABADAQgQcAwEAEHgAAAxF4AAAMROABADAQgQcAwEAEHgAAAxF4AAAMROABADAQgQcAwEAEHgAAAxF4AAAMROABADAQgQcAwEAEHgAAAxF4AAAMROABADAQgQcAwEAEHgAAAxF4AAAMROABADAQgQcAwEAEHgAAAxF4AAAMROABADAQgQcAwEAEHgAAAxF4AAAMROABADAQgQcAwEAEHgAAAxF4AAAMROABADAQgQcAwEAEHgAAAxF4AAAMROABADAQgQcAwEAEHgAAAxF4AAAMROABADAQgQcAwEAEHgAAAxF4AAAMROABADAQgQcAwEAEHgAAAxF4AAAMROABADAQgQcAwEAEHgAAAxF4AAAMROABADAQgQcAwEAEHgAAAxF4AAAMROABADAQgQcAwEAEHgAAAxF4AAAMROABADAQgQcAwEAEHgAAAxF4AAAMROABADAQgQcAwEAEHgAAAxF4AAAMROABADAQgQcAwEAEHgAAAxF4AAAMROABADAQgQcAwEAEHgAAAxF4AAAMROABADAQgQcAwEAEHgAAAxF4AAAMROABADAQgQcAwEAEHgAAAxF4AAAMROABADAQgQcAwEAEHgAAAxF4AAAMROABADAQgQcAwEAEHgAAAxF4AAAMROABADAQgQcAwEAEHgAAAxF4AAAMROABADAQgQcAwEAEHgAAAxF4AAAMROABADAQgQcAwEAEHgAAAxF4AAAMROABADAQgQcAwEAEHgAAAxF4AAAMROABADAQgQcAwEAEHgAAAxF4AAAMROABADAQgQcAwEAEHgAAAxF4AAAM9P9T6RfbPffmWgAAAABJRU5ErkJggg==;" vertex="1" parent="1">
                        <mxGeometry x="-827" y="-1169" width="200.8" height="100" as="geometry"/>
                    </mxCell>
                </object>
                <object label="" motion-id="br1" keyframe-id="0" id="45">
                    <mxCell style="shape=image;verticalLabelPosition=bottom;labelBackgroundColor=#ffffff;verticalAlign=top;aspect=fixed;imageAspect=0;image=data:image/png,iVBORw0KGgoAAAANSUhEUgAAAfgAAAD7CAYAAACGy4ZlAAAABHNCSVQICAgIfAhkiAAAABl0RVh0U29mdHdhcmUAZ25vbWUtc2NyZWVuc2hvdO8Dvz4AAAApdEVYdENyZWF0aW9uIFRpbWUAU3VuIDIxIE5vdiAyMDIxIDEyOjQ5OjQwIFBNkGtSHgAAGutJREFUeJzt3Wd4VGXCh/H/pEJIBhJCDUVQIEGkk6BLACGAFCWIoogIFnQVdNcOuu9rpbgvq7siuui6UhYRWJqFJjYiJaFKSyASNCR0iMyQhLSZ90PISCQVJok8uX+fzHnOnPMwc13ec8rMWNqMvt4pVE8OyZHplDKckqWqJwMAcCevqp4AqobzvFPOdKfkVOXE3XnhfaSFdxIAUBk8qnoCqHzODIccdkd+3CtrnxJxB4BKxBF8teKUw+6UsiRLJce2svcHANUdR/DViDNTUlZVzwIAUBkIfDXhzHbKke6o6mkAACoJgf8dmDpusqaMe73iduCUnHanLNwqDwDVhpe3l7f6d+0nSfpi88oqmcTg7oMkSWu3fqmc3JxK2WeAX4Du63+vorr0VVjzUElS/M8JikuI0zvL3pM9wy4pP76TPnixwuYxddxkDYsc6vr7hQ/+4vZ9ODOdl3VDXUi9ELUMaaWQ4BBJUuqpVCWlJir1ZOplzCJUw558Uh23vaiX1p+6jMdf7n4aK+rOcepweKb+trki9wsAvy9e/bv2U5A1UGdsaVU6kSBroPp37VcpkR8WOVSTRj0vq5+10PKw5qEKax6qYZHRmjr/DYWHhuevW0GBL4h7QvJ+SdLtkdGS3B955/ny1b2Gb01FR96u8LbdlZmV4Qp6eNvukqS4fZu1PGapzmdlln2j3sGK6BKulknlmkr5/XY/3iGKGhStlivnSm4NfIBCu/RQveOrFJPixs0CgJt4FcR97dYvq2wSa7d+qYI3GhUd+WGRQzV13GRJ0rKYFZqzZq4rsKHN2mjMgPsKrVNRLo776CljJUnzXpjt9sg7cyWV49J7Dd+aGj/scQXVrqsFX/5HW+JjJeUfzT89cqKk/NCHBIdo5rIZ5Yu8Sbx76PH/mSLfd75XTIq9+PX8WqhX38HqcU0jBciuIz+t17K1G3W44GZHz2B16TtcUW0ayT/3nA7vW6GPv0vUOblpHEC15VEQ98o6NV6UnNwcrd36pc7Y0lyR9/bydvt+AvwCNGnU85KkSR+8qEkfvOiKuyQlJO/XpA9eVFzCFrfv+2K/jbs9wy57hl2jp4xVQvJ+3R4Z7bZr8s6s8t1YF91zuIJq19W7S992xT068naNHTyu0Hoh9Zsquudwt8zRXP6KGDRKUdZkfbZ4hv7x6Xql1RusB/qGqYYkyUtNe9yrO6+V9n41X/O+PyT/9qN0X6fgC4+/0nEA1ZlHVce9QGVEfsyA0bL6WbUsZoWWxawocp2p4yYrPLSbW/f72+3/Nu4FKiTyuWVfNaReiMLDIrTgy/mu0/Ih9ULUs9PNqmute8n64WERCgoIuvy5eYdq2ITZ+nrRDh1YvlmrXp2oqPoXj7fQsAmztWrRDh1YvkMbZr2kqFqS5KPwsQu0YdEOHVi5Q1s/WqBpUS3kU+yOfBU29H1tWL7vwn6eVGRgWecRrMixs/LncGFfT7fxcW2351OxOrBynw6sXKKHm0jy66T7H/6LnujaUPJsqtaNvJS0ZaV2HTumoz9v1Oe7kuXVsJXqSZJnK/VoW0fJmxfq832JOrB7iRbvO6dmnW5SU3eMA6jWvH4PcS9QEPmKOl0f1aWvJGnOmrlFjv/2hjd3KynuBQoi77bT9XllX/XakFaSpD1Juwot/zElUVJ+7Gv6+hUaa3dte63f+e1lTCxAUU/N0BtdTmnBRy8oJj1Eg0eN11uv+erBCa8oLidAUU/N1htdTmnp/Bf0t+NScGCWktIlKVup2+ZqeoJdqTk+Chs0Sc9MeEk7t43VJ8Wcm7YlrdT0lT/I7h+uMWPH6a0JCbr5tVWylzKPnaHj9cqIlkr66Gm9lGCXtUGwbCeyXdvduWiMJm/KkmRX6nFJNSV5Xvj+qLw0pdm81eG6VvI/EK9z8lfTRvWUe3KjTkpSvRZqVuOc9h79xbW9oz8dVmb7RmpmlQ77XeG47TJeFgDG8Brdf1SJK5yxpbnt7vrB3QcpyBpY+ooXFETeXfsPbdZGkgqdlr9YwWn7inDxm4fQZm2KjHsBe4bdNdcrjbzTUfavmm9cr4kr5gVST6bq3aVvS5LuH/yQbri2g2ssMyvj8o/g60drzI3Bip01Ri+tOiJJWpcUoBXv3KWHe72puF3RGnOjVbGzRmrihfFC89q9Sssu/HdcUogGf/SQOrb00Se7LllVUpZSdy/Xss2HJH2tpCbdtDqqryK8V2ldYMnzeCw7WNZsm+I3fa+4lGxp94VNeudv15aSoB/2X/Ra5uzQR+/tcP257qvv1OzWu/SnUYlKymik1tZ4LVi8W+clyTdANWSXPePXh+em23VejRTo64ZxANUaX1VbScKahyouYUu5T//HJWxR2+Zhl79ji1Nylv3z79c1aaU3n5jh+vu07bS27IvV2rhVWrBuvo6cSlWgta72HNylAREDL3taPk07qKVPkpbuvijex7/XzrRxigxtIf+0IsZdAtRh4EQ9E91DYQ2s0rks+fpIqWW8opOSckpZ/gEKKMM89NFcLT08Q4+8+YU6rp+r95cvVExKdrHbvmSm1kYKyDqsH/YdkprUk6wtFHFNHR3Y9+tRd2lXUa50HED15DVv7fxK21lZjsQLPpdfEXf3JyTvV2izNgpt1qbYo/gCAX4BmjrudSUk79c7y9694n1H/yX/hrSEuXvK9bj7ptx/Rfu1WCxl/gz8kZMpUlhEoWV1rXV1S/dBSrOf0Zb4WK2JXeUae2DIONeNeOVWWoxLGPe54Sm99XhfnVo+TU9+lySb/yC9+lp02fednS0VXLEvbR7pWzTlqSH6otdDevjO8fow6i4tnTZWE7flD5d4oOzXSUN6NVLy2un6/GCutGOjYrs+oid6DVbb/fO1L8uu82pa6Gjbq1aAaihTaVmSPK9wHEC15lERd6tfrqLi7s57BNZt+0qSNGbAfaWu+8KoiYrq0tf1JS9XrXJ8V+HB1MRix4KshU/Fd7vwRmDPwSLPiZcgP6zZST8oNbulOt5w0R3fDTqoY2CWkhIO6VxSwoXxxpdswdqkheqd26LZHy1XzP5d+mFXgk5eclBd/C13FyttHtmSlHNKP6ybpvETRmp6UogGD+qhAGUpO9tXvrUCit+4tanq1zintDO/HmOfPHZK5738FVhL0slDSj7vr2ZN6rjGGzVpqppnjyrZ5oZxANWaR0V9JK28KjrukjRnzTzZM+waFjm0xJvpLh5/Z9lMt86hslnKcREm9WSq4n5zRB4XH6s1sSsLXZsPqReioZG3Ky4+VmfsZ8q28RybbOm+annjIIXX95FOrNL7m2yKuH+GXhnYR5E9R2va8+PV8vhyvf+dXTqxXLO35Y9PuzNaUV36aNDAaIXXkmwpqTrp300j749W5A3t1aF9qKw+xeynNKXNo2W0Hh44UJE3dFN4lx7qEOgrW7pNWTkJ2pmSpbBB43V39z4aNHBE/p33F99Fn5ao5PRG6tK7p9o2bKhGTW7QkB5hCrAdVpJNUl6ivt/3ixp1v0tDWrdS6xuG6872/kresVGH5YZxANWa5+CRQ15uXLexfjr2kxyOqvkxksqIuyRl52Tr1NlTiurSV1Fd+qpxcGOlnkrVqbOnJUnhod00fthjenzYeEm68Jn4rW6dw4Rhj0lSqaf9y7pemZTjdO2PqYkKbR4ma638b/lbvn6JtsTHKe1CyLuFRejeAWOVZj+jeatnKzevrFeAjyv1fAv1jrpLNxxfpGU/nlJS3GalNO6tO28dpdE9Osvn6BJNnv5/+vaXPEkZSty0WSmNw3X7gLs08pYBuukaPyVt+1zb9+9Skvf1GnDzKI297W6N6NFCnqcOKXb9cm06caTwfpICFXXrrQpMXKjFF657ezYfpEdu9NQ3iz9XgiOjxHkEtLlLEx8arwdvu0O33xgqJS7RlPfnKTHdrqQjeWoXfodG3jZM/Vo1UNrO5YpJq69O7VvL9+h2xR7+ST+mnlPD625Sz2691CPsWgXYdmnZ6tU6eN4hySFbyo+y1WmrHhG91KVJDZ3as1j/2ZySf+bgiscBVGeWp2Y+6ywIa1V+F31Fx/1ifTv30bSHJyvAr+jTq/YMu6bMn1bsZ+WvRME1+ND72rllvVI5pbzTjnL9zEwN35qK7jlc4WEROm07rTRbftwDrUGqa62ruPhYLV+/pPp+ix0AXAUs7e7v6KyuPzYzZsBoRXXp6/rYWnxyguLit7hO5VeE8t5kd8WBl/J/JvYyWhwUEKR217ZX43pNJOXfhLfn4K6yn5YHAFQZS5vR11/G74zhcs3889vq27lPmdZdFrPCPZ/Ld0p5aQ5Z+Dl4AKg2CHw14cx2ymFz8JvwAFBNlONDVLiaWXws8vDj5QaA6oL/41cjFj9LKd/MAgAwBYGvZjwCPKRaFjmdlXtlprL3BwDVHYGvhjxqWuRh9ajUV98iSUQeACoNPzZTTVl8LbL4WuQ875TjvFOWiv7FEgs39wFAZSLw1ZylhkWeNSySwylntuTMdeb/hnxu+X6FDgDw+0Lgkc/DIksN8TE6ADAE1+ABADAQgQcAwEAEHgAAAxF4AAAMROABADAQgQcAwEAEHgAAAxF4AAAMROABADAQgS+HvkEOreuaq3Vdc9U3yFHV0wEAoFiWjO6dXT/x1alVliRpR+KvPxpesKw6C6vl0MQWTnWrXfjX0LactWjaIYvi0933PmlE7zuUlZOtFRs+dds2UdgTt0/QyV9OasHXC6t6KgBQYTiCL4HVU5raKk9LOjouibskdavt1JKODk1tlSerp3v2OeLmO9WpVUf3bAxF6tc1Si0aXVPV0wCAClUhgff28tb6t7/R2umr5GG5Ot9DTGjm0LpuuRpav/TfMB9a36l13XI1oRmn7QEAvw9eHz734K9/LXtXklTUsvIY3nOYfLy8FehfR7dEDNDKzauudJ6VqmsNh0ZYsqVMT8m/bL+ulnvGoSHHsrTDs4Y25LnpcB4AgMvk9U4RAS9qWVlZLBY9MOh+zVk9T80bNtODg+6/JPDP3v20+nbuo+DadeXj5aOE5P2avvBNxSVsKdc6AyNu0YRhj6lpvSayZdg1e/Vc/euLDy977hfzk6Rf8nTEZlHDeh7y8C469LnpTiUn5sia6ZSfpIwyHsQ/etsjGnzjIDUMaiBPD0+99+ksvf/ZvyRJN3fqpT6dv1Ggfx0dOvaT3lr8D32z41vXY4f+4Tb96Y7HVa92sM5lntPSmOV6a/E/lJuXK6nk56W05+yeqJEa3e8e1Q9soMSURP3fJ3/TtgPbJUnPj3xWvTv1Ul1rkGr6+unQ0UOXzK0kJc371Qde1h/a3aS+T/V3rf/plGXauGeTpn38V0lS66at9enkpRoz9QHFxsdV6OsPAFc7r/PtY11/1NgVIUmK7bfXtSziy+vLtcHeHXspuHawPv5qgRoENdSnk5eqc+tO2n5gx6/bDAvXsTPH9NrcyarpW1O33jREcyb9W2PfeFCx++LKtE7juo00/dE3NGfNPK2JWyurX4DSz2dcyXNRpDoOp84fz9NZH4saBnuq4IqDM1f6OTFH/r84ZL2M7fbt0kenbac1+T9T5eXhqeNpJ1xjqaeO6IPPP1SeI0/3Rt2jv0/4m3r/OUpp9jRJ0r6f9+nVOa/Llm5T22vC9Pw9zynlZKoWfPVJic9Lac/ZQ4Mf0MO3PqTpn7ypg0eSdE/U3frg2Vnq/8wtOnX2tLqFdtXR00f16pzXVcOnhkZFjbxkbiUpad4b92zUiN53qEFgAx1PO646/rXVKuQ6pZ9Pdz2+c6uOyszK1PbEHZX2+gPA1crL3RscFTVSX2z6QmfTbTqbbtOWhK0a3W9UocBL0k/HftaGPRslSeu2faV5L8zWc3c/o+H/O6JM69StXVeeHp76ftcG/XBwl7v/GZeone3UL0dyJT8P5dgcyj2WJ//SL8+X6NDRn7Rp7+ZLlh84nOg6Kt57aJ++n/GtenfsqWUxKyRJiSk/KjHlR0nS9sQd+kO7mxQe2lULvvqkxOelpDFfb1+Nj35U0xe+qUXf/leStOvgLsX+c5P6d+uvj9ctkCQlHz/smvPupN2Kebvw3EpS0rw37d2sPEeeureN0IoNnyoiLFxn021q16Kd/HxrKiMrUzdef6PiErYoJzen0l9/ALjauPUOuKb1m+oP7W7SJ18vci2bv26BorpGKcgaVOJjv/thva6/pq28PYt/z3HxOnsP7dNX27/WrKff1V8fmaoO17Z327+jOL6SfDMc8jiaJ58rjHtZnbad1tl0m+rXqe9aduP13TVn0r+1aWaMNs2MUZc2neXvFyBJJT4vJY21bNxCNX1rauKo57Xrw+3a9eF2bXs/Tn6+NRUS3LjIuZ06e+ncSlLSvM+m27T9wA5Ftu8hSbqp3U1a9M1ipdnOKKJthDwsHureNqLQG5/Kfv0B4Gri9cy1c1x/vHPhQGie/8yLVin79fi7br5TFotFS15ddMnY7ZHR+tcX/y72sXmOPOXk5ijPUfxF7IvXcTgdGv/3JxQRFq7R/Udp4Usfa86auZo6/69lnu/VIivnvLy9vCVJzRs006yn3tVnm77Q9IVvKjcvVxPvec61bknPS0ljWTnZkqTJ86YoNn5Lof2fTT9bprmVpLR5S9K6bV/rseg/ytPDUz3bR+rZfz6vIGugenfsJXuGXVa/AH19IfDV6fUHgMvhtpvsPD08NSxyqD5c+ZE+2/h5obFxQx7UHb2Glxj4bqHddPBIkhzO4gNf1Dqx8XGKjY/Tw7c+pCfv+JP+/t8ZyszKLPf8rxatm7aWj7ePZiydqWNnjkmSTqSdUJ2AwELrlfS8FDV2+MRhZWZlqlWTVoXOwFTmvFfFrdbz9zyjcUMelF8NP+1I3ClrLatevf9l5eblasv+rTpx0b0Kpf07i+OUU5ar9OObAFBWXruH/3pD3Q1L8m+oK2pZaXp17Km61rpa+PUiJZ84XGhsWcwKDe4+SF3bdNHW/dskST07ROruPiOUejJVPTv0VJ9OvfXUu88WelxJ64QEN1Zk+x6K/zlBHhYPtW3eVucyzykr2+xv3tufvF95jjyNj/6jlqxfpqycLNWtXdd15qOk56WkMYfTofc//1AThj2qrJwsbdq7Wd6eXmpav5nmrJlb4fOW8oMfF79F46Mf1acbPlOeI08xu76Xr7ePRvS+Q6/Med217pW8/ifSTigirJuuC7lWP6Ye1IBu/TRl3GT9ecaTitm9QZJcy/4040l9f2HZoO4D9doDrxRaBgC/V267yW54z2Ha93P8JXGXpE17NyvNnqY7ew93Bf5c5jmN7HuXrml4jU6kndBzsyZd8nG6ktYJrh2s0f3vVbP6TZWdm6MDKQf02N8fL/EMQFltPe+hD8566Z6AXNUq44FeuqTFTm/tUMV+Bj75xGE9897zemzoHxXdY6icTqdO285oddwaSSU/L6U9Z++t+Kd+sadpzC33aXT/e2VPtyk+OcEtgS9t3gUWfrNY3dtG6NNN+WeBcnJztDpujQZ1H6iVm1e61ruS13/msvf02oOvaOwt9+kvH74ki+XSj0AWLHM6L73ZoqhlAPB7Y8leLtf/ra7kCL48/vvKQu05tFcvz371itapaAEWp54OytEQ/8LRyDicV+jv1U5PzXD4yl5EKAAAqApesxyX3lBX1LLqyO606OXTPlpgd+jpwBx1rlH4yG2n00MznD5KlKdE2wEAvyNu/yY7E+3P9tDDx33Vu2aeXgjK0VlZ9LbDRzHu/xqBq1aAX4C2/HNTseNT5r+huWvmVZt5AEBVs7QZfT0XFHHFPCweat20VbHjx9NOlOnb7kyZBwBUNQIPAICB+DAwAAAGIvAAABiIwAMAYCACDwCAgQg8AAAGIvAAABiIwAMAYCACDwCAgbw6tepY1XMAAABu5rUjcWdVzwEAALgZp+gBADAQgQcAwEAEHgAAAxF4AAAMROABADAQgQcAwEAEHgAAAxF4AAAMROABADAQgQcAwEAEHgAAAxF4AAAMROABADAQgQcAwEAEHgAAAxF4AAAMROABADAQgQcAwEAEHgAAAxF4AAAMROABADAQgQcAwEAEHgAAAxF4AAAMROABADAQgQcAwEAEHgAAAxF4AAAMROABADAQgQcAwEAEHgAAAxF4AAAMROABADAQgQcAwEAEHgAAAxF4AAAMROABADAQgQcAwEAEHgAAAxF4AAAMROABADAQgQcAwEAEHgAAAxF4AAAMROABADAQgQcAwEAEHgAAAxF4AAAMROABADAQgQcAwEAEHgAAAxF4AAAMROABADAQgQcAwEAEHgAAAxF4AAAMROABADAQgQcAwEAEHgAAAxF4AAAMROABADAQgQcAwEAEHgAAAxF4AAAMROABADAQgQcAwEAEHgAAAxF4AAAMROABADAQgQcAwEAEHgAAAxF4AAAMROABADAQgQcAwEAEHgAAAxF4AAAMROABADAQgQcAwEAEHgAAAxF4AAAMROABADAQgQcAwEAEHgAAAxF4AAAMROABADAQgQcAwEAEHgAAAxF4AAAMROABADAQgQcAwEAEHgAAAxF4AAAMROABADAQgQcAwEAEHgAAAxF4AAAMROABADAQgQcAwEAEHgAAAxF4AAAMROABADAQgQcAwEAEHgAAAxF4AAAMROABADAQgQcAwEAEHgAAAxF4AAAMROABADAQgQcAwEAEHgAAAxF4AAAMROABADAQgQcAwEAEHgAAAxF4AAAMROABADAQgQcAwEAEHgAAAxF4AAAMROABADAQgQcAwEAEHgAAAxF4AAAMROABADAQgQcAwEAEHgAAAxF4AAAMROABADAQgQcAwEAEHgAAAxF4AAAMROABADAQgQcAwEAEHgAAAxF4AAAMROABADAQgQcAwEAEHgAAAxF4AAAMROABADAQgQcAwEAEHgAAAxF4AAAMROABADAQgQcAwEAEHgAAAxF4AAAMROABADAQgQcAwEAEHgAAAxF4AAAMROABADAQgQcAwEAEHgAAAxF4AAAMROABADAQgQcAwEAEHgAAAxF4AAAMROABADAQgQcAwEAEHgAAAxF4AAAMROABADAQgQcAwEAEHgAAAxF4AAAMROABADAQgQcAwEAEHgAAAxF4AAAMROABADAQgQcAwEAEHgAAAxF4AAAMROABADAQgQcAwEAEHgAAAxF4AAAMROABADAQgQcAwEAEHgAAAxF4AAAM9P9T6RfbPffmWgAAAABJRU5ErkJggg==;" vertex="1" parent="1">
                        <mxGeometry x="-827" y="-1169" width="200.8" height="100" as="geometry"/>
                    </mxCell>
                </object>
                <object label="" motion-id="br1" keyframe-id="2" id="46">
                    <mxCell style="shape=image;verticalLabelPosition=bottom;labelBackgroundColor=#ffffff;verticalAlign=top;aspect=fixed;imageAspect=0;image=data:image/png,iVBORw0KGgoAAAANSUhEUgAAAfgAAAD7CAYAAACGy4ZlAAAABHNCSVQICAgIfAhkiAAAABl0RVh0U29mdHdhcmUAZ25vbWUtc2NyZWVuc2hvdO8Dvz4AAAApdEVYdENyZWF0aW9uIFRpbWUAU3VuIDIxIE5vdiAyMDIxIDEyOjQ5OjQwIFBNkGtSHgAAGutJREFUeJzt3Wd4VGXCh/H/pEJIBhJCDUVQIEGkk6BLACGAFCWIoogIFnQVdNcOuu9rpbgvq7siuui6UhYRWJqFJjYiJaFKSyASNCR0iMyQhLSZ90PISCQVJok8uX+fzHnOnPMwc13ec8rMWNqMvt4pVE8OyZHplDKckqWqJwMAcCevqp4AqobzvFPOdKfkVOXE3XnhfaSFdxIAUBk8qnoCqHzODIccdkd+3CtrnxJxB4BKxBF8teKUw+6UsiRLJce2svcHANUdR/DViDNTUlZVzwIAUBkIfDXhzHbKke6o6mkAACoJgf8dmDpusqaMe73iduCUnHanLNwqDwDVhpe3l7f6d+0nSfpi88oqmcTg7oMkSWu3fqmc3JxK2WeAX4Du63+vorr0VVjzUElS/M8JikuI0zvL3pM9wy4pP76TPnixwuYxddxkDYsc6vr7hQ/+4vZ9ODOdl3VDXUi9ELUMaaWQ4BBJUuqpVCWlJir1ZOplzCJUw558Uh23vaiX1p+6jMdf7n4aK+rOcepweKb+trki9wsAvy9e/bv2U5A1UGdsaVU6kSBroPp37VcpkR8WOVSTRj0vq5+10PKw5qEKax6qYZHRmjr/DYWHhuevW0GBL4h7QvJ+SdLtkdGS3B955/ny1b2Gb01FR96u8LbdlZmV4Qp6eNvukqS4fZu1PGapzmdlln2j3sGK6BKulknlmkr5/XY/3iGKGhStlivnSm4NfIBCu/RQveOrFJPixs0CgJt4FcR97dYvq2wSa7d+qYI3GhUd+WGRQzV13GRJ0rKYFZqzZq4rsKHN2mjMgPsKrVNRLo776CljJUnzXpjt9sg7cyWV49J7Dd+aGj/scQXVrqsFX/5HW+JjJeUfzT89cqKk/NCHBIdo5rIZ5Yu8Sbx76PH/mSLfd75XTIq9+PX8WqhX38HqcU0jBciuIz+t17K1G3W44GZHz2B16TtcUW0ayT/3nA7vW6GPv0vUOblpHEC15VEQ98o6NV6UnNwcrd36pc7Y0lyR9/bydvt+AvwCNGnU85KkSR+8qEkfvOiKuyQlJO/XpA9eVFzCFrfv+2K/jbs9wy57hl2jp4xVQvJ+3R4Z7bZr8s6s8t1YF91zuIJq19W7S992xT068naNHTyu0Hoh9Zsquudwt8zRXP6KGDRKUdZkfbZ4hv7x6Xql1RusB/qGqYYkyUtNe9yrO6+V9n41X/O+PyT/9qN0X6fgC4+/0nEA1ZlHVce9QGVEfsyA0bL6WbUsZoWWxawocp2p4yYrPLSbW/f72+3/Nu4FKiTyuWVfNaReiMLDIrTgy/mu0/Ih9ULUs9PNqmute8n64WERCgoIuvy5eYdq2ITZ+nrRDh1YvlmrXp2oqPoXj7fQsAmztWrRDh1YvkMbZr2kqFqS5KPwsQu0YdEOHVi5Q1s/WqBpUS3kU+yOfBU29H1tWL7vwn6eVGRgWecRrMixs/LncGFfT7fxcW2351OxOrBynw6sXKKHm0jy66T7H/6LnujaUPJsqtaNvJS0ZaV2HTumoz9v1Oe7kuXVsJXqSZJnK/VoW0fJmxfq832JOrB7iRbvO6dmnW5SU3eMA6jWvH4PcS9QEPmKOl0f1aWvJGnOmrlFjv/2hjd3KynuBQoi77bT9XllX/XakFaSpD1Juwot/zElUVJ+7Gv6+hUaa3dte63f+e1lTCxAUU/N0BtdTmnBRy8oJj1Eg0eN11uv+erBCa8oLidAUU/N1htdTmnp/Bf0t+NScGCWktIlKVup2+ZqeoJdqTk+Chs0Sc9MeEk7t43VJ8Wcm7YlrdT0lT/I7h+uMWPH6a0JCbr5tVWylzKPnaHj9cqIlkr66Gm9lGCXtUGwbCeyXdvduWiMJm/KkmRX6nFJNSV5Xvj+qLw0pdm81eG6VvI/EK9z8lfTRvWUe3KjTkpSvRZqVuOc9h79xbW9oz8dVmb7RmpmlQ77XeG47TJeFgDG8Brdf1SJK5yxpbnt7vrB3QcpyBpY+ooXFETeXfsPbdZGkgqdlr9YwWn7inDxm4fQZm2KjHsBe4bdNdcrjbzTUfavmm9cr4kr5gVST6bq3aVvS5LuH/yQbri2g2ssMyvj8o/g60drzI3Bip01Ri+tOiJJWpcUoBXv3KWHe72puF3RGnOjVbGzRmrihfFC89q9Sssu/HdcUogGf/SQOrb00Se7LllVUpZSdy/Xss2HJH2tpCbdtDqqryK8V2ldYMnzeCw7WNZsm+I3fa+4lGxp94VNeudv15aSoB/2X/Ra5uzQR+/tcP257qvv1OzWu/SnUYlKymik1tZ4LVi8W+clyTdANWSXPePXh+em23VejRTo64ZxANUaX1VbScKahyouYUu5T//HJWxR2+Zhl79ji1Nylv3z79c1aaU3n5jh+vu07bS27IvV2rhVWrBuvo6cSlWgta72HNylAREDL3taPk07qKVPkpbuvijex7/XzrRxigxtIf+0IsZdAtRh4EQ9E91DYQ2s0rks+fpIqWW8opOSckpZ/gEKKMM89NFcLT08Q4+8+YU6rp+r95cvVExKdrHbvmSm1kYKyDqsH/YdkprUk6wtFHFNHR3Y9+tRd2lXUa50HED15DVv7fxK21lZjsQLPpdfEXf3JyTvV2izNgpt1qbYo/gCAX4BmjrudSUk79c7y9694n1H/yX/hrSEuXvK9bj7ptx/Rfu1WCxl/gz8kZMpUlhEoWV1rXV1S/dBSrOf0Zb4WK2JXeUae2DIONeNeOVWWoxLGPe54Sm99XhfnVo+TU9+lySb/yC9+lp02fednS0VXLEvbR7pWzTlqSH6otdDevjO8fow6i4tnTZWE7flD5d4oOzXSUN6NVLy2un6/GCutGOjYrs+oid6DVbb/fO1L8uu82pa6Gjbq1aAaihTaVmSPK9wHEC15lERd6tfrqLi7s57BNZt+0qSNGbAfaWu+8KoiYrq0tf1JS9XrXJ8V+HB1MRix4KshU/Fd7vwRmDPwSLPiZcgP6zZST8oNbulOt5w0R3fDTqoY2CWkhIO6VxSwoXxxpdswdqkheqd26LZHy1XzP5d+mFXgk5eclBd/C13FyttHtmSlHNKP6ybpvETRmp6UogGD+qhAGUpO9tXvrUCit+4tanq1zintDO/HmOfPHZK5738FVhL0slDSj7vr2ZN6rjGGzVpqppnjyrZ5oZxANWaR0V9JK28KjrukjRnzTzZM+waFjm0xJvpLh5/Z9lMt86hslnKcREm9WSq4n5zRB4XH6s1sSsLXZsPqReioZG3Ky4+VmfsZ8q28RybbOm+annjIIXX95FOrNL7m2yKuH+GXhnYR5E9R2va8+PV8vhyvf+dXTqxXLO35Y9PuzNaUV36aNDAaIXXkmwpqTrp300j749W5A3t1aF9qKw+xeynNKXNo2W0Hh44UJE3dFN4lx7qEOgrW7pNWTkJ2pmSpbBB43V39z4aNHBE/p33F99Fn5ao5PRG6tK7p9o2bKhGTW7QkB5hCrAdVpJNUl6ivt/3ixp1v0tDWrdS6xuG6872/kresVGH5YZxANWa5+CRQ15uXLexfjr2kxyOqvkxksqIuyRl52Tr1NlTiurSV1Fd+qpxcGOlnkrVqbOnJUnhod00fthjenzYeEm68Jn4rW6dw4Rhj0lSqaf9y7pemZTjdO2PqYkKbR4ma638b/lbvn6JtsTHKe1CyLuFRejeAWOVZj+jeatnKzevrFeAjyv1fAv1jrpLNxxfpGU/nlJS3GalNO6tO28dpdE9Osvn6BJNnv5/+vaXPEkZSty0WSmNw3X7gLs08pYBuukaPyVt+1zb9+9Skvf1GnDzKI297W6N6NFCnqcOKXb9cm06caTwfpICFXXrrQpMXKjFF657ezYfpEdu9NQ3iz9XgiOjxHkEtLlLEx8arwdvu0O33xgqJS7RlPfnKTHdrqQjeWoXfodG3jZM/Vo1UNrO5YpJq69O7VvL9+h2xR7+ST+mnlPD625Sz2691CPsWgXYdmnZ6tU6eN4hySFbyo+y1WmrHhG91KVJDZ3as1j/2ZySf+bgiscBVGeWp2Y+6ywIa1V+F31Fx/1ifTv30bSHJyvAr+jTq/YMu6bMn1bsZ+WvRME1+ND72rllvVI5pbzTjnL9zEwN35qK7jlc4WEROm07rTRbftwDrUGqa62ruPhYLV+/pPp+ix0AXAUs7e7v6KyuPzYzZsBoRXXp6/rYWnxyguLit7hO5VeE8t5kd8WBl/J/JvYyWhwUEKR217ZX43pNJOXfhLfn4K6yn5YHAFQZS5vR11/G74zhcs3889vq27lPmdZdFrPCPZ/Ld0p5aQ5Z+Dl4AKg2CHw14cx2ymFz8JvwAFBNlONDVLiaWXws8vDj5QaA6oL/41cjFj9LKd/MAgAwBYGvZjwCPKRaFjmdlXtlprL3BwDVHYGvhjxqWuRh9ajUV98iSUQeACoNPzZTTVl8LbL4WuQ875TjvFOWiv7FEgs39wFAZSLw1ZylhkWeNSySwylntuTMdeb/hnxu+X6FDgDw+0Lgkc/DIksN8TE6ADAE1+ABADAQgQcAwEAEHgAAAxF4AAAMROABADAQgQcAwEAEHgAAAxF4AAAMROABADAQgS+HvkEOreuaq3Vdc9U3yFHV0wEAoFiWjO6dXT/x1alVliRpR+KvPxpesKw6C6vl0MQWTnWrXfjX0LactWjaIYvi0933PmlE7zuUlZOtFRs+dds2UdgTt0/QyV9OasHXC6t6KgBQYTiCL4HVU5raKk9LOjouibskdavt1JKODk1tlSerp3v2OeLmO9WpVUf3bAxF6tc1Si0aXVPV0wCAClUhgff28tb6t7/R2umr5GG5Ot9DTGjm0LpuuRpav/TfMB9a36l13XI1oRmn7QEAvw9eHz734K9/LXtXklTUsvIY3nOYfLy8FehfR7dEDNDKzauudJ6VqmsNh0ZYsqVMT8m/bL+ulnvGoSHHsrTDs4Y25LnpcB4AgMvk9U4RAS9qWVlZLBY9MOh+zVk9T80bNtODg+6/JPDP3v20+nbuo+DadeXj5aOE5P2avvBNxSVsKdc6AyNu0YRhj6lpvSayZdg1e/Vc/euLDy977hfzk6Rf8nTEZlHDeh7y8C469LnpTiUn5sia6ZSfpIwyHsQ/etsjGnzjIDUMaiBPD0+99+ksvf/ZvyRJN3fqpT6dv1Ggfx0dOvaT3lr8D32z41vXY4f+4Tb96Y7HVa92sM5lntPSmOV6a/E/lJuXK6nk56W05+yeqJEa3e8e1Q9soMSURP3fJ3/TtgPbJUnPj3xWvTv1Ul1rkGr6+unQ0UOXzK0kJc371Qde1h/a3aS+T/V3rf/plGXauGeTpn38V0lS66at9enkpRoz9QHFxsdV6OsPAFc7r/PtY11/1NgVIUmK7bfXtSziy+vLtcHeHXspuHawPv5qgRoENdSnk5eqc+tO2n5gx6/bDAvXsTPH9NrcyarpW1O33jREcyb9W2PfeFCx++LKtE7juo00/dE3NGfNPK2JWyurX4DSz2dcyXNRpDoOp84fz9NZH4saBnuq4IqDM1f6OTFH/r84ZL2M7fbt0kenbac1+T9T5eXhqeNpJ1xjqaeO6IPPP1SeI0/3Rt2jv0/4m3r/OUpp9jRJ0r6f9+nVOa/Llm5T22vC9Pw9zynlZKoWfPVJic9Lac/ZQ4Mf0MO3PqTpn7ypg0eSdE/U3frg2Vnq/8wtOnX2tLqFdtXR00f16pzXVcOnhkZFjbxkbiUpad4b92zUiN53qEFgAx1PO646/rXVKuQ6pZ9Pdz2+c6uOyszK1PbEHZX2+gPA1crL3RscFTVSX2z6QmfTbTqbbtOWhK0a3W9UocBL0k/HftaGPRslSeu2faV5L8zWc3c/o+H/O6JM69StXVeeHp76ftcG/XBwl7v/GZeone3UL0dyJT8P5dgcyj2WJ//SL8+X6NDRn7Rp7+ZLlh84nOg6Kt57aJ++n/GtenfsqWUxKyRJiSk/KjHlR0nS9sQd+kO7mxQe2lULvvqkxOelpDFfb1+Nj35U0xe+qUXf/leStOvgLsX+c5P6d+uvj9ctkCQlHz/smvPupN2Kebvw3EpS0rw37d2sPEeeureN0IoNnyoiLFxn021q16Kd/HxrKiMrUzdef6PiErYoJzen0l9/ALjauPUOuKb1m+oP7W7SJ18vci2bv26BorpGKcgaVOJjv/thva6/pq28PYt/z3HxOnsP7dNX27/WrKff1V8fmaoO17Z327+jOL6SfDMc8jiaJ58rjHtZnbad1tl0m+rXqe9aduP13TVn0r+1aWaMNs2MUZc2neXvFyBJJT4vJY21bNxCNX1rauKo57Xrw+3a9eF2bXs/Tn6+NRUS3LjIuZ06e+ncSlLSvM+m27T9wA5Ftu8hSbqp3U1a9M1ipdnOKKJthDwsHureNqLQG5/Kfv0B4Gri9cy1c1x/vHPhQGie/8yLVin79fi7br5TFotFS15ddMnY7ZHR+tcX/y72sXmOPOXk5ijPUfxF7IvXcTgdGv/3JxQRFq7R/Udp4Usfa86auZo6/69lnu/VIivnvLy9vCVJzRs006yn3tVnm77Q9IVvKjcvVxPvec61bknPS0ljWTnZkqTJ86YoNn5Lof2fTT9bprmVpLR5S9K6bV/rseg/ytPDUz3bR+rZfz6vIGugenfsJXuGXVa/AH19IfDV6fUHgMvhtpvsPD08NSxyqD5c+ZE+2/h5obFxQx7UHb2Glxj4bqHddPBIkhzO4gNf1Dqx8XGKjY/Tw7c+pCfv+JP+/t8ZyszKLPf8rxatm7aWj7ePZiydqWNnjkmSTqSdUJ2AwELrlfS8FDV2+MRhZWZlqlWTVoXOwFTmvFfFrdbz9zyjcUMelF8NP+1I3ClrLatevf9l5eblasv+rTpx0b0Kpf07i+OUU5ar9OObAFBWXruH/3pD3Q1L8m+oK2pZaXp17Km61rpa+PUiJZ84XGhsWcwKDe4+SF3bdNHW/dskST07ROruPiOUejJVPTv0VJ9OvfXUu88WelxJ64QEN1Zk+x6K/zlBHhYPtW3eVucyzykr2+xv3tufvF95jjyNj/6jlqxfpqycLNWtXdd15qOk56WkMYfTofc//1AThj2qrJwsbdq7Wd6eXmpav5nmrJlb4fOW8oMfF79F46Mf1acbPlOeI08xu76Xr7ePRvS+Q6/Med217pW8/ifSTigirJuuC7lWP6Ye1IBu/TRl3GT9ecaTitm9QZJcy/4040l9f2HZoO4D9doDrxRaBgC/V267yW54z2Ha93P8JXGXpE17NyvNnqY7ew93Bf5c5jmN7HuXrml4jU6kndBzsyZd8nG6ktYJrh2s0f3vVbP6TZWdm6MDKQf02N8fL/EMQFltPe+hD8566Z6AXNUq44FeuqTFTm/tUMV+Bj75xGE9897zemzoHxXdY6icTqdO285oddwaSSU/L6U9Z++t+Kd+sadpzC33aXT/e2VPtyk+OcEtgS9t3gUWfrNY3dtG6NNN+WeBcnJztDpujQZ1H6iVm1e61ruS13/msvf02oOvaOwt9+kvH74ki+XSj0AWLHM6L73ZoqhlAPB7Y8leLtf/ra7kCL48/vvKQu05tFcvz371itapaAEWp54OytEQ/8LRyDicV+jv1U5PzXD4yl5EKAAAqApesxyX3lBX1LLqyO606OXTPlpgd+jpwBx1rlH4yG2n00MznD5KlKdE2wEAvyNu/yY7E+3P9tDDx33Vu2aeXgjK0VlZ9LbDRzHu/xqBq1aAX4C2/HNTseNT5r+huWvmVZt5AEBVs7QZfT0XFHHFPCweat20VbHjx9NOlOnb7kyZBwBUNQIPAICB+DAwAAAGIvAAABiIwAMAYCACDwCAgQg8AAAGIvAAABiIwAMAYCACDwCAgbw6tepY1XMAAABu5rUjcWdVzwEAALgZp+gBADAQgQcAwEAEHgAAAxF4AAAMROABADAQgQcAwEAEHgAAAxF4AAAMROABADAQgQcAwEAEHgAAAxF4AAAMROABADAQgQcAwEAEHgAAAxF4AAAMROABADAQgQcAwEAEHgAAAxF4AAAMROABADAQgQcAwEAEHgAAAxF4AAAMROABADAQgQcAwEAEHgAAAxF4AAAMROABADAQgQcAwEAEHgAAAxF4AAAMROABADAQgQcAwEAEHgAAAxF4AAAMROABADAQgQcAwEAEHgAAAxF4AAAMROABADAQgQcAwEAEHgAAAxF4AAAMROABADAQgQcAwEAEHgAAAxF4AAAMROABADAQgQcAwEAEHgAAAxF4AAAMROABADAQgQcAwEAEHgAAAxF4AAAMROABADAQgQcAwEAEHgAAAxF4AAAMROABADAQgQcAwEAEHgAAAxF4AAAMROABADAQgQcAwEAEHgAAAxF4AAAMROABADAQgQcAwEAEHgAAAxF4AAAMROABADAQgQcAwEAEHgAAAxF4AAAMROABADAQgQcAwEAEHgAAAxF4AAAMROABADAQgQcAwEAEHgAAAxF4AAAMROABADAQgQcAwEAEHgAAAxF4AAAMROABADAQgQcAwEAEHgAAAxF4AAAMROABADAQgQcAwEAEHgAAAxF4AAAMROABADAQgQcAwEAEHgAAAxF4AAAMROABADAQgQcAwEAEHgAAAxF4AAAMROABADAQgQcAwEAEHgAAAxF4AAAMROABADAQgQcAwEAEHgAAAxF4AAAMROABADAQgQcAwEAEHgAAAxF4AAAMROABADAQgQcAwEAEHgAAAxF4AAAMROABADAQgQcAwEAEHgAAAxF4AAAMROABADAQgQcAwEAEHgAAAxF4AAAMROABADAQgQcAwEAEHgAAAxF4AAAMROABADAQgQcAwEAEHgAAAxF4AAAMROABADAQgQcAwEAEHgAAAxF4AAAMROABADAQgQcAwEAEHgAAAxF4AAAMROABADAQgQcAwEAEHgAAAxF4AAAMROABADAQgQcAwEAEHgAAAxF4AAAMROABADAQgQcAwEAEHgAAAxF4AAAMROABADAQgQcAwEAEHgAAAxF4AAAMROABADAQgQcAwEAEHgAAAxF4AAAMROABADAQgQcAwEAEHgAAAxF4AAAMROABADAQgQcAwEAEHgAAAxF4AAAMROABADAQgQcAwEAEHgAAAxF4AAAMROABADAQgQcAwEAEHgAAAxF4AAAMROABADAQgQcAwEAEHgAAAxF4AAAM9P9T6RfbPffmWgAAAABJRU5ErkJggg==;" vertex="1" parent="1">
                        <mxGeometry x="-610" y="-980" width="502" height="250" as="geometry"/>
                    </mxCell>
                </object>
            </root>
        </mxGraphModel>
    </diagram>
</mxfile>